<svg width="128" height="128" viewBox="0 0 128 128" fill="none" xmlns="http://www.w3.org/2000/svg">
<rect width="128" height="128" fill="#232324"/>
<rect x="17.5" y="36.5" width="93" height="55" rx="8.5" fill="#D6333E" stroke="#D6333E" stroke-width="3"/>
<path d="M40.4545 77H31.5824V50.8182H40.6335C43.233 50.8182 45.4659 51.3423 47.3324 52.3906C49.2074 53.4304 50.6477 54.9261 51.6534 56.8778C52.6591 58.8295 53.1619 61.1648 53.1619 63.8835C53.1619 66.6108 52.6548 68.9545 51.6406 70.9148C50.6349 72.875 49.1818 74.3793 47.2812 75.4276C45.3892 76.4759 43.1136 77 40.4545 77ZM36.3253 72.8963H40.2244C42.0483 72.8963 43.5696 72.5639 44.7884 71.8991C46.0071 71.2259 46.9233 70.2244 47.5369 68.8949C48.1506 67.5568 48.4574 65.8864 48.4574 63.8835C48.4574 61.8807 48.1506 60.2187 47.5369 58.8977C46.9233 57.5682 46.0156 56.5753 44.8139 55.919C43.6207 55.2543 42.1378 54.9219 40.3651 54.9219H36.3253V72.8963ZM55.3576 54.794V50.8182H76.2468V54.794H68.1545V77H63.4499V54.794H55.3576ZM80.2738 77V50.8182H97.0465V54.794H85.0167V61.902H95.896V65.8778H85.0167V77H80.2738Z" fill="white"/>
</svg>
